
        <svg xmlns="http://www.w3.org/2000/svg" xmlns:xlink="http://www.w3.org/1999/xlink" version="1.1" width="3327.868852459016" height="2737.7049180327867" viewBox="0 0 3327.868852459016 2737.7049180327867">
			
			<g transform="scale(16.39344262295082) translate(10, 10)">
				<defs id="SvgjsDefs6927"><linearGradient id="SvgjsLinearGradient6932"><stop id="SvgjsStop6933" stop-color="#2d388a" offset="0"/><stop id="SvgjsStop6934" stop-color="#00aeef" offset="1"/></linearGradient><linearGradient id="SvgjsLinearGradient6935"><stop id="SvgjsStop6936" stop-color="#2d388a" offset="0"/><stop id="SvgjsStop6937" stop-color="#00aeef" offset="1"/></linearGradient></defs><g id="SvgjsG6928" featureKey="rootContainer" transform="matrix(1,0,0,1,0,0)" fill="#000">    <path xmlns="http://www.w3.org/2000/svg" fill-rule="nonzero" d="             M0,0             H183             V147             H0,0             z             M4,4             v139             h175             v-139             z     "/></g><g id="SvgjsG6929" featureKey="nameFeature-0" transform="matrix(4.04967592582103,0,0,4.04967592582103,17,-29.574521612875387)" fill="#000"><path d="M5 40.04 l-5 0 l0 -28.52 l5 0 c3.4 0 6.12 2.76 6.12 6.16 l0 16.2 c0 1.64 -0.64 3.2 -1.8 4.36 s-2.68 1.8 -4.32 1.8 z M3.8 15.36 l0 20.84 l1.2 0 c0.6 0 1.2 -0.24 1.64 -0.68 s0.68 -1 0.68 -1.64 l0 -16.2 c0 -1.28 -1.04 -2.32 -2.32 -2.32 l-1.2 0 z M18.6 40.24 c-3.04 0 -5.48 -2.48 -5.48 -5.48 l0 -4.36 l3.88 0 l0 4.36 c0 0.88 0.72 1.6 1.6 1.6 s1.56 -0.72 1.56 -1.6 l0 -3.8 l-7.04 -9.72 l0 -4.96 c0 -3.04 2.44 -5.52 5.48 -5.52 c3 0 5.44 2.48 5.44 5.52 l0 4.32 l-3.88 0 l0 -4.32 c0 -0.92 -0.68 -1.6 -1.56 -1.6 s-1.6 0.68 -1.6 1.6 l0 3.64 l7.04 9.72 l0 5.12 c0 3 -2.44 5.48 -5.44 5.48 z M33.24 11.440000000000001 l3.8 0 l0 28.52 l-3.8 0 l0 -15.08 l-3.4 0 l0 15.08 l-3.8 0 l0 -28.52 l3.8 0 l0 9.68 l3.4 0 l0 -9.68 z"/></g>
			</g>
		</svg>
	